<svg xmlns="http://www.w3.org/2000/svg" version="1.1" xmlns:xlink="http://www.w3.org/1999/xlink" xmlns:svgjs="http://svgjs.dev/svgjs" width="1000" height="353" viewBox="0 0 1000 353"><g transform="matrix(1,0,0,1,-0.6060606060606233,-0.4612866584577091)"><svg viewBox="0 0 396 140" data-background-color="#ffffff" preserveAspectRatio="xMidYMid meet" height="353" width="1000" xmlns="http://www.w3.org/2000/svg" xmlns:xlink="http://www.w3.org/1999/xlink"><g id="tight-bounds" transform="matrix(1,0,0,1,0.2400000000000091,0.18294655009654548)"><svg viewBox="0 0 395.52 138.6341068998069" height="138.6341068998069" width="395.52"><g><svg viewBox="0 0 395.52 138.6341068998069" height="138.6341068998069" width="395.52"><g><svg viewBox="0 0 395.52 138.6341068998069" height="138.6341068998069" width="395.52"><g id="textblocktransform"><svg viewBox="0 0 395.52 138.6341068998069" height="138.6341068998069" width="395.52" id="textblock"><g><rect width="395.52" height="104.6049285039301" fill="none" stroke-width="8.962371322224001" stroke="#202046" data-fill-palette-color="none" data-stroke-palette-color="tertiary"></rect><rect width="395.52" height="35.0291783958768" y="104.6049285039301" fill="#202046" data-fill-palette-color="tertiary"></rect></g><g><svg viewBox="0 0 395.52 103.6049285039301" height="103.6049285039301" width="395.52"><g transform="matrix(1,0,0,1,23.461705032,23.461705032)"><svg width="348.596589936" viewBox="1.1 -39.04 243.06 39.53" height="56.681518439930095" data-palette-color="#202046"><path d="M27.81-13.31L27.81-13.31Q27.81-10.38 26.76-7.85 25.71-5.32 23.9-3.48 22.09-1.64 19.67-0.57 17.24 0.49 14.45 0.49L14.45 0.49Q11.69 0.49 9.27-0.57 6.84-1.64 5.02-3.48 3.2-5.32 2.15-7.85 1.1-10.38 1.1-13.31L1.1-13.31Q1.1-16.28 2.15-18.82 3.2-21.36 5.02-23.21 6.84-25.05 9.27-26.1 11.69-27.15 14.45-27.15L14.45-27.15Q17.24-27.15 19.67-26.16 22.09-25.17 23.9-23.35 25.71-21.53 26.76-18.98 27.81-16.43 27.81-13.31ZM21.09-13.31L21.09-13.31Q21.09-14.92 20.57-16.22 20.04-17.53 19.14-18.47 18.24-19.41 17.03-19.91 15.82-20.41 14.45-20.41L14.45-20.41Q13.09-20.41 11.88-19.91 10.67-19.41 9.78-18.47 8.89-17.53 8.37-16.22 7.86-14.92 7.86-13.31L7.86-13.31Q7.86-11.79 8.37-10.5 8.89-9.2 9.78-8.25 10.67-7.3 11.88-6.75 13.09-6.2 14.45-6.2L14.45-6.2Q15.82-6.2 17.03-6.71 18.24-7.23 19.14-8.15 20.04-9.08 20.57-10.4 21.09-11.72 21.09-13.31ZM39.67-19.51L39.67 0 33.01 0 33.01-19.51 29.76-19.51 29.76-26.15 33.01-26.15 33.01-27.39Q33.01-29.81 33.92-31.93 34.84-34.06 36.44-35.63 38.03-37.21 40.16-38.12 42.28-39.04 44.7-39.04L44.7-39.04 49.7-39.04 49.7-32.4 44.7-32.4Q43.63-32.4 42.71-32.02 41.79-31.64 41.12-30.97 40.45-30.3 40.06-29.38 39.67-28.47 39.67-27.39L39.67-27.39 39.67-26.15 47.85-26.15 47.85-19.51 39.67-19.51ZM59.47-19.51L59.47 0 52.8 0 52.8-19.51 49.56-19.51 49.56-26.15 52.8-26.15 52.8-27.39Q52.8-29.81 53.72-31.93 54.63-34.06 56.23-35.63 57.83-37.21 59.96-38.12 62.08-39.04 64.5-39.04L64.5-39.04 69.5-39.04 69.5-32.4 64.5-32.4Q63.42-32.4 62.51-32.02 61.59-31.64 60.92-30.97 60.25-30.3 59.86-29.38 59.47-28.47 59.47-27.39L59.47-27.39 59.47-26.15 67.65-26.15 67.65-19.51 59.47-19.51ZM79.61-33.25L79.61-33.25Q79.61-32.32 79.25-31.52 78.9-30.71 78.29-30.11 77.68-29.52 76.86-29.16 76.04-28.81 75.11-28.81L75.11-28.81Q74.19-28.81 73.37-29.16 72.55-29.52 71.95-30.11 71.35-30.71 71-31.52 70.65-32.32 70.65-33.25L70.65-33.25Q70.65-34.16 71-34.97 71.35-35.79 71.95-36.39 72.55-36.99 73.37-37.34 74.19-37.7 75.11-37.7L75.11-37.7Q76.04-37.7 76.86-37.34 77.68-36.99 78.29-36.39 78.9-35.79 79.25-34.97 79.61-34.16 79.61-33.25ZM78.46-26.15L78.46 0 71.75 0 71.75-26.15 78.46-26.15ZM106.39-20.95L106.39-20.95 101.5-16.04Q101.14-17.07 100.5-17.88 99.87-18.7 99.07-19.26 98.28-19.82 97.35-20.12 96.43-20.41 95.45-20.41L95.45-20.41Q94.08-20.41 92.87-19.85 91.66-19.29 90.77-18.27 89.88-17.26 89.37-15.87 88.86-14.48 88.86-12.79L88.86-12.79Q88.86-11.43 89.37-10.23 89.88-9.03 90.77-8.13 91.66-7.23 92.87-6.71 94.08-6.2 95.45-6.2L95.45-6.2Q96.43-6.2 97.33-6.47 98.23-6.74 99.03-7.24 99.82-7.74 100.44-8.46 101.06-9.18 101.45-10.06L101.45-10.06 106.34-5.15Q105.41-3.83 104.2-2.78 102.99-1.73 101.59-1 100.19-0.27 98.64 0.11 97.08 0.49 95.45 0.49L95.45 0.49Q92.69 0.49 90.26-0.55 87.83-1.59 86.01-3.39 84.19-5.2 83.14-7.62 82.09-10.03 82.09-12.79L82.09-12.79Q82.09-15.8 83.14-18.41 84.19-21.02 86.01-22.96 87.83-24.9 90.26-26.03 92.69-27.15 95.45-27.15L95.45-27.15Q97.08-27.15 98.66-26.73 100.23-26.32 101.66-25.52 103.09-24.73 104.3-23.58 105.51-22.44 106.39-20.95ZM132.14-21.46L119.64-6.4Q120.03-6.27 120.42-6.24 120.81-6.2 121.2-6.2L121.2-6.2Q122.18-6.2 123.08-6.47 123.99-6.74 124.78-7.24 125.57-7.74 126.2-8.46 126.82-9.18 127.21-10.06L127.21-10.06 132.09-5.15Q131.16-3.83 129.96-2.78 128.75-1.73 127.34-1 125.94-0.27 124.39 0.11 122.84 0.49 121.2 0.49L121.2 0.49Q118.44 0.49 116.02-0.54 113.59-1.56 111.77-3.39 109.95-5.22 108.9-7.75 107.85-10.28 107.85-13.31L107.85-13.31Q107.85-16.41 108.9-18.97 109.95-21.53 111.77-23.34 113.59-25.15 116.02-26.15 118.44-27.15 121.2-27.15L121.2-27.15Q122.84-27.15 124.4-26.76 125.96-26.37 127.37-25.63 128.77-24.9 129.99-23.84 131.21-22.78 132.14-21.46L132.14-21.46ZM115.3-9.84L123.06-20.14Q122.59-20.31 122.14-20.36 121.69-20.41 121.2-20.41L121.2-20.41Q119.84-20.41 118.63-19.91 117.42-19.41 116.53-18.48 115.64-17.55 115.12-16.25 114.61-14.94 114.61-13.31L114.61-13.31Q114.61-12.94 114.65-12.48 114.68-12.01 114.77-11.54 114.86-11.06 114.98-10.62 115.1-10.18 115.3-9.84L115.3-9.84ZM167.63 0L162.58 0Q160.16 0 158.04-0.92 155.92-1.83 154.32-3.43 152.72-5.03 151.8-7.15 150.89-9.28 150.89-11.69L150.89-11.69 150.89-19.46 147.64-19.46 147.64-26.1 150.89-26.1 150.89-36.55 157.53-36.55 157.53-26.1 167.63-26.1 167.63-19.46 157.53-19.46 157.53-11.69Q157.53-10.64 157.92-9.73 158.31-8.81 158.99-8.13 159.67-7.45 160.6-7.04 161.53-6.64 162.58-6.64L162.58-6.64 167.63-6.64 167.63 0ZM179.23-33.25L179.23-33.25Q179.23-32.32 178.87-31.52 178.52-30.71 177.91-30.11 177.3-29.52 176.48-29.16 175.66-28.81 174.74-28.81L174.74-28.81Q173.81-28.81 172.99-29.16 172.17-29.52 171.57-30.11 170.98-30.71 170.62-31.52 170.27-32.32 170.27-33.25L170.27-33.25Q170.27-34.16 170.62-34.97 170.98-35.79 171.57-36.39 172.17-36.99 172.99-37.34 173.81-37.7 174.74-37.7L174.74-37.7Q175.66-37.7 176.48-37.34 177.3-36.99 177.91-36.39 178.52-35.79 178.87-34.97 179.23-34.16 179.23-33.25ZM178.08-26.15L178.08 0 171.37 0 171.37-26.15 178.08-26.15ZM216.41-16.6L216.41 0 209.77 0 209.77-16.6Q209.77-17.29 209.51-17.9 209.25-18.51 208.79-18.97 208.33-19.43 207.72-19.69 207.11-19.95 206.42-19.95L206.42-19.95Q205.74-19.95 205.14-19.69 204.54-19.43 204.09-18.97 203.64-18.51 203.38-17.9 203.13-17.29 203.13-16.6L203.13-16.6 203.13 0 196.46 0 196.46-16.6Q196.46-17.29 196.21-17.9 195.95-18.51 195.49-18.97 195.02-19.43 194.41-19.69 193.8-19.95 193.12-19.95L193.12-19.95Q192.43-19.95 191.84-19.69 191.24-19.43 190.79-18.97 190.33-18.51 190.08-17.9 189.82-17.29 189.82-16.6L189.82-16.6 189.82 0 183.16 0 183.16-26.15 184.77-26.15 186.57-24.15Q187.97-25.32 189.64-25.96 191.31-26.61 193.12-26.61L193.12-26.61Q194.95-26.61 196.69-25.93 198.44-25.24 199.76-23.56L199.76-23.56Q200.37-24.39 201.15-24.98 201.93-25.56 202.8-25.93 203.66-26.29 204.59-26.45 205.52-26.61 206.42-26.61L206.42-26.61Q208.5-26.61 210.32-25.83 212.14-25.05 213.49-23.69 214.85-22.34 215.63-20.51 216.41-18.68 216.41-16.6L216.41-16.6ZM244.16-21.46L231.66-6.4Q232.06-6.27 232.45-6.24 232.84-6.2 233.23-6.2L233.23-6.2Q234.2-6.2 235.11-6.47 236.01-6.74 236.8-7.24 237.6-7.74 238.22-8.46 238.84-9.18 239.23-10.06L239.23-10.06 244.12-5.15Q243.19-3.83 241.98-2.78 240.77-1.73 239.37-1 237.96-0.27 236.41 0.11 234.86 0.49 233.23 0.49L233.23 0.49Q230.47 0.49 228.04-0.54 225.61-1.56 223.79-3.39 221.97-5.22 220.92-7.75 219.87-10.28 219.87-13.31L219.87-13.31Q219.87-16.41 220.92-18.97 221.97-21.53 223.79-23.34 225.61-25.15 228.04-26.15 230.47-27.15 233.23-27.15L233.23-27.15Q234.86-27.15 236.43-26.76 237.99-26.37 239.39-25.63 240.8-24.9 242.02-23.84 243.24-22.78 244.16-21.46L244.16-21.46ZM227.32-9.84L235.08-20.14Q234.62-20.31 234.17-20.36 233.72-20.41 233.23-20.41L233.23-20.41Q231.86-20.41 230.65-19.91 229.44-19.41 228.55-18.48 227.66-17.55 227.15-16.25 226.64-14.94 226.64-13.31L226.64-13.31Q226.64-12.94 226.67-12.48 226.71-12.01 226.79-11.54 226.88-11.06 227-10.62 227.12-10.18 227.32-9.84L227.32-9.84Z" opacity="1" transform="matrix(1,0,0,1,0,0)" fill="#202046" class="wordmark-text-0" data-fill-palette-color="primary" id="text-0"></path></svg></g></svg></g><g transform="matrix(1,0,0,1,86.35891552294737,103.6049285039301)"><svg viewBox="0 0 222.80216895410524 35.029178395876805" height="35.029178395876805" width="222.80216895410524"><g transform="matrix(1,0,0,1,20,3.2)"><svg width="182.80216895410524" viewBox="3 -37.7 309.97 48.550000000000004" height="28.629178395876803" data-palette-color="#ffffff"><path d="M25.35 0L18.5 0 12.4-13.95 11.8-13.95 9.35-13.95 9.35 0 3 0 3-34.55 11.15-34.55Q23.65-34.55 23.65-24.4L23.65-24.4Q23.65-21.25 22.25-18.82 20.85-16.4 18.05-15.15L18.05-15.15 25.35 0ZM11.45-18.55Q14.4-18.55 15.73-19.95 17.05-21.35 17.05-24.4L17.05-24.4Q17.05-27.25 15.68-28.58 14.3-29.9 11.15-29.9L11.15-29.9 9.35-29.9 9.35-18.55 11.45-18.55ZM47.25-13.85Q47.25-13.4 47.1-11.3L47.1-11.3 33.45-11.3Q33.65-7.2 34.87-5.58 36.1-3.95 38.35-3.95L38.35-3.95Q39.9-3.95 41.15-4.48 42.4-5 43.85-6.15L43.85-6.15 46.4-2.65Q42.9 0.75 38 0.75L38 0.75Q32.8 0.75 30.02-2.85 27.25-6.45 27.25-13L27.25-13Q27.25-19.55 29.9-23.35 32.55-27.15 37.4-27.15L37.4-27.15Q42.05-27.15 44.65-23.78 47.25-20.4 47.25-13.85L47.25-13.85ZM41.25-15.3L41.25-15.65Q41.25-19.4 40.35-21.13 39.45-22.85 37.45-22.85L37.45-22.85Q35.6-22.85 34.62-21.18 33.65-19.5 33.45-15.3L33.45-15.3 41.25-15.3ZM68.45-6.4Q68.45-5.1 68.8-4.48 69.15-3.85 69.95-3.45L69.95-3.45 68.7 0.65Q66.65 0.4 65.42-0.45 64.2-1.3 63.6-3.05L63.6-3.05Q61.3 0.75 57.15 0.75L57.15 0.75Q53.85 0.75 51.9-1.48 49.95-3.7 49.95-7.4L49.95-7.4Q49.95-11.7 52.62-13.95 55.3-16.2 60.4-16.2L60.4-16.2 62.45-16.2 62.45-18.05Q62.45-20.55 61.57-21.58 60.7-22.6 58.75-22.6L58.75-22.6Q56.4-22.6 52.9-21.3L52.9-21.3 51.5-25.3Q53.5-26.2 55.65-26.68 57.8-27.15 59.75-27.15L59.75-27.15Q68.45-27.15 68.45-18.35L68.45-18.35 68.45-6.4ZM58.8-3.7Q61.2-3.7 62.45-7L62.45-7 62.45-12.55 61-12.55Q58.45-12.55 57.27-11.4 56.1-10.25 56.1-7.85L56.1-7.85Q56.1-5.8 56.8-4.75 57.5-3.7 58.8-3.7L58.8-3.7ZM83.74-27.15Q85.89-27.15 87.64-26.43 89.39-25.7 90.99-24.15L90.99-24.15 88.34-20.65Q87.24-21.55 86.27-21.98 85.29-22.4 84.14-22.4L84.14-22.4Q81.89-22.4 80.74-20.28 79.59-18.15 79.59-13.1L79.59-13.1Q79.59-8.2 80.77-6.2 81.94-4.2 84.14-4.2L84.14-4.2Q85.24-4.2 86.14-4.6 87.04-5 88.24-5.85L88.24-5.85 90.99-2.3Q87.79 0.75 83.84 0.75L83.84 0.75Q78.74 0.75 75.92-2.73 73.09-6.2 73.09-13L73.09-13Q73.09-17.4 74.39-20.6 75.69-23.8 78.12-25.48 80.54-27.15 83.74-27.15L83.74-27.15ZM105.19-5L107.34-1.2Q104.89 0.75 101.59 0.75L101.59 0.75Q98.14 0.75 96.34-1.23 94.54-3.2 94.54-6.6L94.54-6.6 94.54-22 91.44-22 91.44-26.45 94.54-26.45 94.54-32.3 100.69-33.05 100.69-26.45 105.69-26.45 105.09-22 100.69-22 100.69-6.6Q100.69-4.2 102.74-4.2L102.74-4.2Q103.39-4.2 103.89-4.38 104.39-4.55 105.19-5L105.19-5ZM127.59-34.55Q131.94-34.55 135.11-33.23 138.29-31.9 140.26-28.13 142.24-24.35 142.24-17.45L142.24-17.45Q142.24-7.7 138.36-3.85 134.49 0 128.24 0L128.24 0 119.89 0 119.89-34.55 127.59-34.55ZM128.54-29.8L126.24-29.8 126.24-4.75 128.59-4.75Q130.84-4.75 132.36-5.8 133.89-6.85 134.76-9.65 135.64-12.45 135.64-17.45L135.64-17.45Q135.64-22.55 134.71-25.25 133.79-27.95 132.26-28.88 130.74-29.8 128.54-29.8L128.54-29.8ZM165.68-13.85Q165.68-13.4 165.53-11.3L165.53-11.3 151.88-11.3Q152.08-7.2 153.31-5.58 154.53-3.95 156.78-3.95L156.78-3.95Q158.33-3.95 159.58-4.48 160.83-5 162.28-6.15L162.28-6.15 164.83-2.65Q161.33 0.75 156.43 0.75L156.43 0.75Q151.23 0.75 148.46-2.85 145.68-6.45 145.68-13L145.68-13Q145.68-19.55 148.33-23.35 150.98-27.15 155.83-27.15L155.83-27.15Q160.48-27.15 163.08-23.78 165.68-20.4 165.68-13.85L165.68-13.85ZM159.68-15.3L159.68-15.65Q159.68-19.4 158.78-21.13 157.88-22.85 155.88-22.85L155.88-22.85Q154.03-22.85 153.06-21.18 152.08-19.5 151.88-15.3L151.88-15.3 159.68-15.3ZM182.38-26.45L188.43-26.45 181.53 0 174.28 0 167.18-26.45 173.53-26.45 177.88-4.95 182.38-26.45ZM210.18-13.85Q210.18-13.4 210.03-11.3L210.03-11.3 196.38-11.3Q196.58-7.2 197.8-5.58 199.03-3.95 201.28-3.95L201.28-3.95Q202.83-3.95 204.08-4.48 205.33-5 206.78-6.15L206.78-6.15 209.33-2.65Q205.83 0.75 200.93 0.75L200.93 0.75Q195.73 0.75 192.95-2.85 190.18-6.45 190.18-13L190.18-13Q190.18-19.55 192.83-23.35 195.48-27.15 200.33-27.15L200.33-27.15Q204.98-27.15 207.58-23.78 210.18-20.4 210.18-13.85L210.18-13.85ZM204.18-15.3L204.18-15.65Q204.18-19.4 203.28-21.13 202.38-22.85 200.38-22.85L200.38-22.85Q198.53-22.85 197.55-21.18 196.58-19.5 196.38-15.3L196.38-15.3 204.18-15.3ZM220.08 0.75Q217.38 0.75 215.8-0.93 214.23-2.6 214.23-5.4L214.23-5.4 214.23-37.05 220.38-37.7 220.38-5.65Q220.38-5 220.68-4.6 220.98-4.2 221.58-4.2L221.58-4.2Q221.93-4.2 222.25-4.3 222.58-4.4 222.68-4.4L222.68-4.4 223.88-0.2Q222.18 0.75 220.08 0.75L220.08 0.75ZM236.32-27.15Q241.32-27.15 244.1-23.65 246.87-20.15 246.87-13.25L246.87-13.25Q246.87-6.65 244.07-2.95 241.27 0.75 236.32 0.75L236.32 0.75Q231.37 0.75 228.57-2.88 225.77-6.5 225.77-13.25L225.77-13.25Q225.77-19.95 228.57-23.55 231.37-27.15 236.32-27.15L236.32-27.15ZM236.32-22.5Q234.17-22.5 233.17-20.38 232.17-18.25 232.17-13.25L232.17-13.25Q232.17-8.2 233.17-6.08 234.17-3.95 236.32-3.95L236.32-3.95Q238.47-3.95 239.47-6.08 240.47-8.2 240.47-13.25L240.47-13.25Q240.47-18.3 239.47-20.4 238.47-22.5 236.32-22.5L236.32-22.5ZM263.62-27.15Q267.52-27.15 269.52-23.58 271.52-20 271.52-13.3L271.52-13.3Q271.52-6.8 269.25-3.03 266.97 0.75 262.92 0.75L262.92 0.75Q259.72 0.75 257.57-2.1L257.57-2.1 257.57 10.15 251.42 10.85 251.42-26.45 256.87-26.45 257.12-23.25Q258.42-25.25 260.02-26.2 261.62-27.15 263.62-27.15L263.62-27.15ZM261.27-3.95Q263.17-3.95 264.17-6.13 265.17-8.3 265.17-13.25L265.17-13.25Q265.17-18.45 264.32-20.5 263.47-22.55 261.67-22.55L261.67-22.55Q259.37-22.55 257.57-19.25L257.57-19.25 257.57-6.45Q259.17-3.95 261.27-3.95L261.27-3.95ZM294.97-13.85Q294.97-13.4 294.82-11.3L294.82-11.3 281.17-11.3Q281.37-7.2 282.59-5.58 283.82-3.95 286.07-3.95L286.07-3.95Q287.62-3.95 288.87-4.48 290.12-5 291.57-6.15L291.57-6.15 294.12-2.65Q290.62 0.75 285.72 0.75L285.72 0.75Q280.52 0.75 277.74-2.85 274.97-6.45 274.97-13L274.97-13Q274.97-19.55 277.62-23.35 280.27-27.15 285.12-27.15L285.12-27.15Q289.77-27.15 292.37-23.78 294.97-20.4 294.97-13.85L294.97-13.85ZM288.97-15.3L288.97-15.65Q288.97-19.4 288.07-21.13 287.17-22.85 285.17-22.85L285.17-22.85Q283.32-22.85 282.34-21.18 281.37-19.5 281.17-15.3L281.17-15.3 288.97-15.3ZM310.92-27.1Q312.06-27.1 312.97-26.75L312.97-26.75 311.97-20.85Q310.97-21.1 310.12-21.1L310.12-21.1Q308.22-21.1 307.12-19.45 306.02-17.8 305.42-14.55L305.42-14.55 305.42 0 299.27 0 299.27-26.45 304.62-26.45 305.06-21.85Q306.92-27.1 310.92-27.1L310.92-27.1Z" opacity="1" transform="matrix(1,0,0,1,0,0)" fill="#ffffff" class="slogan-text-1" data-fill-palette-color="quaternary" id="text-1"></path></svg></g></svg></g></svg></g></svg></g></svg></g><defs></defs></svg><rect width="395.52" height="138.6341068998069" fill="none" stroke="none" visibility="hidden"></rect></g></svg></g></svg>